<!DOCTYPE svg PUBLIC "-//W3C//DTD SVG 1.1//EN" "http://www.w3.org/Graphics/SVG/1.1/DTD/svg11.dtd">
<!-- Uploaded to: SVG Repo, www.svgrepo.com, Transformed by: SVG Repo Mixer Tools -->
<svg fill="#000000" height="64px" width="64px" version="1.1" id="Layer_1" xmlns="http://www.w3.org/2000/svg" xmlns:xlink="http://www.w3.org/1999/xlink" viewBox="-61.44 -61.44 634.88 634.88" xml:space="preserve">
<g id="SVGRepo_bgCarrier" stroke-width="0"/>
<g id="SVGRepo_tracerCarrier" stroke-linecap="round" stroke-linejoin="round"/>
<g id="SVGRepo_iconCarrier"> <g> <g> <path d="M468.566,361.034c-13.683-8.129-29.192-17.342-58.97-17.342c-10.699,0-19.548,1.193-27.139,3.094l35.631-148.874 l-40.877-12.825V86.122h-48.406V41.258h-57.597V0h-30.417v41.257h-57.597v44.864h-48.407v98.964L93.912,197.91l40.558,169.465 c-8.264,4.037-17.434,6.733-32.073,6.733c-21.423,0-31.135-5.77-43.432-13.075C45.284,352.904,29.775,343.691,0,343.691v30.417 c21.422,0,31.134,5.769,43.431,13.075c13.682,8.129,29.19,17.342,58.967,17.342s45.284-9.213,58.966-17.342 c12.297-7.305,22.009-13.075,43.431-13.075c21.423,0,31.135,5.769,43.432,13.075c13.683,8.129,29.19,17.342,58.967,17.342 c29.777,0,45.287-9.213,58.97-17.342c12.298-7.305,22.01-13.075,43.435-13.075c21.425,0,31.138,5.77,43.435,13.075 c13.683,8.128,29.191,17.342,58.969,17.342v-30.417C490.576,374.108,480.863,368.339,468.566,361.034z M213.612,71.675h84.776 v14.447h-84.776V71.675z M240.792,212.788h-24.9v30.417h24.9v106.285c-9.401-3.413-20.851-5.799-35.998-5.799 c-18.927-0.001-32.084,3.723-42.676,8.523L130.1,218.436l110.692-34.729V212.788z M165.204,175.543v-59.004h0.001h17.989h145.61 h17.989v59.004l-90.794-28.486L165.204,175.543z M347.3,362.998c-10.849,6.348-20.647,11.11-40.109,11.11 c-16.978,0-26.6-3.626-35.983-8.765V243.205h24.9v-30.417h-24.9v-29.081L381.9,218.436L347.3,362.998z"/> </g> </g> <g> <g> <path d="M468.565,414.77c-13.682-8.128-29.191-17.342-58.97-17.342c-29.777,0-45.287,9.213-58.97,17.342 c-12.297,7.305-22.01,13.075-43.435,13.075c-21.423,0-31.135-5.769-43.432-13.075c-13.682-8.13-29.19-17.342-58.967-17.342 s-45.284,9.213-58.966,17.342c-12.297,7.305-22.009,13.075-43.431,13.075c-21.423,0-31.135-5.77-43.432-13.075 C45.284,406.641,29.775,397.428,0,397.428v30.417c21.422,0,31.134,5.769,43.431,13.075c13.682,8.129,29.19,17.342,58.967,17.342 s45.284-9.213,58.966-17.342c12.297-7.305,22.009-13.075,43.431-13.075c21.423,0,31.135,5.769,43.432,13.075 c13.683,8.129,29.19,17.342,58.967,17.342c29.777,0,45.287-9.213,58.97-17.342c12.298-7.305,22.01-13.075,43.435-13.075 c21.425,0,31.138,5.77,43.435,13.075c13.683,8.128,29.191,17.342,58.969,17.342v-30.417 C490.575,427.845,480.862,422.076,468.565,414.77z"/> </g> </g> <g> <g> <path d="M468.565,468.507c-13.682-8.128-29.191-17.342-58.97-17.342c-29.777,0-45.287,9.213-58.97,17.342 c-12.297,7.305-22.01,13.075-43.435,13.075c-21.423,0-31.135-5.769-43.432-13.075c-13.682-8.13-29.19-17.342-58.967-17.342 s-45.284,9.213-58.966,17.342c-12.297,7.305-22.009,13.075-43.431,13.075c-21.423,0-31.135-5.77-43.432-13.075 C45.284,460.378,29.775,451.165,0,451.165v30.417c21.422,0,31.134,5.769,43.431,13.075c13.682,8.129,29.19,17.342,58.967,17.342 s45.284-9.213,58.966-17.342c12.297-7.305,22.009-13.075,43.431-13.075c21.423,0,31.135,5.769,43.432,13.075 c13.683,8.129,29.19,17.342,58.967,17.342c29.777,0,45.287-9.213,58.97-17.342c12.298-7.305,22.01-13.075,43.435-13.075 c21.425,0,31.138,5.77,43.435,13.075c13.683,8.128,29.191,17.342,58.969,17.342v-30.417 C490.575,481.582,480.862,475.813,468.565,468.507z"/> </g> </g> </g>
</svg>