<!DOCTYPE svg PUBLIC "-//W3C//DTD SVG 1.1//EN" "http://www.w3.org/Graphics/SVG/1.1/DTD/svg11.dtd">
<!-- Uploaded to: SVG Repo, www.svgrepo.com, Transformed by: SVG Repo Mixer Tools -->
<svg fill="#000000" height="64px" width="64px" version="1.1" id="Layer_1" xmlns="http://www.w3.org/2000/svg" xmlns:xlink="http://www.w3.org/1999/xlink" viewBox="0 0 511.999 511.999" xml:space="preserve" transform="matrix(1, 0, 0, 1, 0, 0)rotate(0)">
<g id="SVGRepo_bgCarrier" stroke-width="0"/>
<g id="SVGRepo_tracerCarrier" stroke-linecap="round" stroke-linejoin="round" stroke="#CCCCCC" stroke-width="4.095992000000001"/>
<g id="SVGRepo_iconCarrier"> <g> <g> <path d="M229.195,181.847H128.613v112.109h124.103L229.195,181.847z M159.03,263.538v-51.275h45.467l10.758,51.275H159.03z"/> </g> </g> <g> <g> <path d="M493.754,362.594v-0.001v-79.849v-30.417V142.061H353.071v110.266v30.417v79.849H338.78V82.301h-30.417v280.292h-14.291 v-85.423l-29.214-139.242H84.691v125.612H0v129.471h31.227c3.112,20.735,21.042,36.687,42.631,36.687 c21.589,0,39.519-15.952,42.631-36.687h61.094c3.112,20.735,21.042,36.687,42.631,36.687s39.519-15.952,42.631-36.687h16.019 h15.208h58.999h140.683h18.246v-30.417H493.754z M73.858,399.28c-6.999,0-12.694-5.695-12.694-12.694 c0-1.737,0.352-3.393,0.987-4.901c0.005-0.012,0.009-0.026,0.014-0.039c0.155-0.367,0.329-0.724,0.517-1.072 c0.021-0.039,0.045-0.076,0.066-0.115c0.175-0.317,0.362-0.627,0.563-0.926c0.018-0.027,0.038-0.055,0.056-0.082 c0.907-1.331,2.06-2.482,3.395-3.385c0.004-0.003,0.008-0.005,0.012-0.008c0.323-0.218,0.657-0.42,1.001-0.608 c0.021-0.012,0.043-0.024,0.064-0.035c0.697-0.377,1.434-0.689,2.201-0.933c0.068-0.021,0.137-0.039,0.206-0.059 c0.294-0.088,0.593-0.164,0.896-0.231c0.119-0.026,0.238-0.05,0.358-0.072c0.272-0.052,0.547-0.092,0.824-0.127 c0.119-0.014,0.236-0.031,0.355-0.043c0.388-0.036,0.781-0.06,1.178-0.06c0.001,0,0.001,0,0.001,0c0.399,0,0.793,0.023,1.182,0.06 c0.118,0.011,0.234,0.028,0.351,0.043c0.28,0.033,0.557,0.075,0.83,0.127c0.119,0.022,0.236,0.046,0.353,0.071 c0.305,0.067,0.606,0.144,0.903,0.233c0.066,0.019,0.134,0.035,0.199,0.057c0.769,0.243,1.506,0.556,2.204,0.934 c0.02,0.011,0.04,0.022,0.06,0.033c0.345,0.19,0.681,0.392,1.006,0.611c0.003,0.002,0.005,0.003,0.008,0.005 c1.335,0.903,2.489,2.055,3.397,3.387c0.018,0.026,0.037,0.054,0.055,0.08c0.201,0.3,0.388,0.61,0.564,0.927 c0.021,0.039,0.045,0.076,0.065,0.115c0.188,0.348,0.362,0.705,0.517,1.072c0.005,0.012,0.009,0.026,0.014,0.039 c0.634,1.509,0.987,3.164,0.987,4.901C86.552,393.585,80.858,399.28,73.858,399.28z M220.213,399.28 c-6.999,0-12.694-5.695-12.694-12.694c0-1.735,0.352-3.388,0.984-4.895c0.006-0.015,0.011-0.03,0.017-0.045 c0.155-0.366,0.329-0.722,0.516-1.07c0.022-0.041,0.047-0.079,0.069-0.12c0.174-0.314,0.36-0.623,0.56-0.92 c0.019-0.029,0.04-0.058,0.06-0.087c0.907-1.329,2.059-2.48,3.392-3.382c0.005-0.003,0.009-0.006,0.014-0.009 c0.322-0.218,0.656-0.42,0.999-0.607c0.021-0.012,0.043-0.024,0.065-0.036c0.698-0.377,1.434-0.689,2.201-0.933 c0.067-0.021,0.136-0.037,0.204-0.058c0.295-0.088,0.595-0.165,0.899-0.232c0.118-0.025,0.236-0.049,0.356-0.071 c0.273-0.052,0.549-0.093,0.827-0.127c0.118-0.014,0.235-0.031,0.354-0.043c0.389-0.036,0.782-0.06,1.181-0.06 s0.792,0.023,1.181,0.06c0.119,0.011,0.235,0.028,0.354,0.043c0.279,0.033,0.555,0.075,0.827,0.127 c0.119,0.022,0.237,0.046,0.356,0.071c0.304,0.067,0.604,0.144,0.899,0.232c0.067,0.02,0.136,0.036,0.203,0.058 c0.768,0.243,1.505,0.556,2.202,0.933c0.021,0.011,0.042,0.023,0.062,0.034c0.344,0.189,0.679,0.391,1.003,0.61 c0.003,0.002,0.007,0.004,0.01,0.007c1.334,0.903,2.487,2.054,3.396,3.385c0.018,0.027,0.037,0.055,0.056,0.082 c0.201,0.299,0.388,0.609,0.563,0.926c0.021,0.039,0.045,0.076,0.066,0.115c0.188,0.348,0.362,0.705,0.517,1.072 c0.005,0.012,0.009,0.026,0.014,0.039c0.634,1.509,0.987,3.164,0.987,4.901C232.907,393.585,227.213,399.28,220.213,399.28z M256.043,362.593c-4.648-6.954-11.213-12.352-18.827-15.617c-0.147-0.064-0.295-0.127-0.443-0.189 c-0.504-0.21-1.011-0.412-1.524-0.602c-0.257-0.096-0.517-0.185-0.776-0.276c-0.454-0.159-0.907-0.32-1.369-0.464 c-0.511-0.16-1.028-0.303-1.547-0.445c-0.446-0.122-0.895-0.235-1.347-0.343c-0.535-0.128-1.072-0.25-1.613-0.358 c-0.304-0.06-0.611-0.11-0.918-0.164c-0.518-0.091-1.039-0.174-1.563-0.246c-0.302-0.042-0.604-0.08-0.908-0.116 c-0.563-0.065-1.13-0.117-1.7-0.16c-0.263-0.02-0.524-0.045-0.788-0.06c-0.83-0.048-1.666-0.078-2.507-0.078 s-1.677,0.03-2.507,0.078c-0.264,0.015-0.525,0.041-0.788,0.06c-0.57,0.044-1.137,0.095-1.7,0.16 c-0.304,0.035-0.606,0.074-0.908,0.116c-0.524,0.072-1.045,0.155-1.563,0.246c-0.306,0.054-0.613,0.104-0.918,0.164 c-0.542,0.107-1.079,0.23-1.613,0.358c-0.451,0.107-0.9,0.221-1.347,0.343c-0.518,0.142-1.036,0.285-1.547,0.445 c-0.46,0.144-0.914,0.305-1.369,0.464c-0.259,0.091-0.519,0.179-0.776,0.276c-0.513,0.191-1.02,0.392-1.524,0.602 c-0.148,0.062-0.296,0.126-0.443,0.189c-7.614,3.265-14.179,8.663-18.827,15.617h-74.695c-4.649-6.956-11.217-12.357-18.834-15.62 c-0.143-0.062-0.286-0.123-0.43-0.184c-0.507-0.211-1.018-0.414-1.534-0.606c-0.253-0.094-0.508-0.182-0.762-0.271 c-0.458-0.16-0.917-0.323-1.381-0.468c-0.494-0.155-0.996-0.293-1.497-0.431c-0.466-0.127-0.934-0.247-1.405-0.359 c-0.53-0.127-1.062-0.248-1.6-0.355c-0.306-0.061-0.615-0.112-0.924-0.165c-0.516-0.09-1.034-0.173-1.557-0.245 c-0.303-0.042-0.607-0.081-0.912-0.117c-0.562-0.065-1.128-0.117-1.696-0.16c-0.264-0.02-0.526-0.045-0.791-0.061 c-0.829-0.048-1.664-0.078-2.504-0.078c-0.001,0-0.001,0-0.002,0c-0.843,0-1.677,0.03-2.508,0.078 c-0.263,0.015-0.523,0.04-0.786,0.06c-0.571,0.044-1.139,0.095-1.703,0.16c-0.303,0.036-0.604,0.074-0.905,0.116 c-0.526,0.072-1.047,0.156-1.568,0.247c-0.305,0.054-0.61,0.103-0.914,0.163c-0.544,0.107-1.084,0.231-1.621,0.36 c-0.442,0.105-0.881,0.216-1.319,0.335c-0.526,0.143-1.051,0.289-1.57,0.451c-0.459,0.144-0.91,0.304-1.364,0.462 c-0.261,0.091-0.522,0.182-0.781,0.278c-0.512,0.191-1.018,0.391-1.521,0.601c-0.149,0.062-0.297,0.126-0.446,0.19 c-7.614,3.265-14.178,8.663-18.825,15.616h-7.606v-68.637h84.691V168.34h125.05l23.494,111.983v82.27H256.043z M463.337,362.593 h-79.849v-79.849h24.716v25.346h30.417v-25.346h24.716V362.593z M463.337,252.327h-79.849v-79.849h24.716v25.345h30.417v-25.345 h24.716V252.327z"/> </g> </g> </g>
</svg>